/* XPM */
static char * image_name[] = {
"32 32 234 2",
"  	c #C1C1C1C1C1C1",
". 	c #9D9DADAD9D9D",
"X 	c #7A7A9C9C7A7A",
"o 	c #575792925757",
"O 	c #232362622323",
"+ 	c #000071710000",
"@ 	c #8C8CA3A38C8C",
"# 	c #7A7A8D8D7A7A",
"$ 	c #000058580000",
"% 	c #000070700000",
"& 	c #00003E3E0000",
"* 	c #00005D5D0000",
"= 	c #00006E6E0000",
"- 	c #000073730000",
"; 	c #AFAFB9B9AFAF",
": 	c #696986866969",
"> 	c #7A7AA4A47A7A",
", 	c #69697A7A6969",
"< 	c #000023230000",
"1 	c #000031310000",
"2 	c #000033330000",
"3 	c #000039390000",
"4 	c #343465653434",
"5 	c #696997976969",
"6 	c #343480803434",
"7 	c #8C8C97978C8C",
"8 	c #000049490000",
"9 	c #000062620000",
"0 	c #00006F6F0000",
"q 	c #575796965757",
"w 	c #AFAFB2B2AFAF",
"e 	c #9D9DA1A19D9D",
"r 	c #575763635757",
"t 	c #343452523434",
"y 	c #000056560000",
"u 	c #7A7A88887A7A",
"i 	c #57578B8B5757",
"p 	c #232377772323",
"a 	c #00006B6B0000",
"s 	c #57578D8D5757",
"d 	c #11113A3A1111",
"f 	c #00004B4B0000",
"g 	c #000061610000",
"h 	c #232336362323",
"j 	c #575775755757",
"k 	c #111164641111",
"l 	c #343446463434",
"z 	c #000064640000",
"x 	c #46465C5C4646",
"c 	c #000037370000",
"v 	c #000035350000",
"b 	c #00004A4A0000",
"n 	c #69697C7C6969",
"m 	c #8C8C93938C8C",
"M 	c #111135351111",
"N 	c #23236D6D2323",
"B 	c #8C8C94948C8C",
"V 	c #000026260000",
"C 	c #000018180000",
"Z 	c #11114E4E1111",
"A 	c #23237D7D2323",
"S 	c #AFAFBABAAFAF",
"D 	c #696981816969",
"F 	c #8C8CA0A08C8C",
"G 	c #000053530000",
"H 	c #00002F2F0000",
"J 	c #9D9DA2A29D9D",
"K 	c #111155551111",
"L 	c #343485853434",
"P 	c #AFAFBBBBC3C3",
"I 	c #000079795C5C",
"U 	c #9D9DB6B6C8C8",
"Y 	c #343462623434",
"T 	c #8C8C9C9C8C8C",
"R 	c #46469595CCCC",
"E 	c #00008F8FF2F2",
"W 	c #0101A2A2FFFF",
"Q 	c #0000AEAEFFFF",
"! 	c #3434B4B4EEEE",
"~ 	c #696997978080",
"^ 	c #464664644646",
"/ 	c #7A7A8B8B8484",
"( 	c #00006D6DA1A1",
") 	c #00008282D8D8",
"_ 	c #00009292F6F6",
"` 	c #00009D9DFFFF",
"' 	c #0404AEAEFFFF",
"] 	c #1B1BCACAFFFF",
"[ 	c #0707BCBCFFFF",
"{ 	c #0000B8B8FFFF",
"} 	c #464679795D5D",
"| 	c #343461618181",
" .	c #00006363A3A3",
"..	c #00007A7AD0D0",
"X.	c #00008B8BEDED",
"o.	c #01019A9AFDFD",
"O.	c #2222C5C5FFFF",
"+.	c #6161F9F9FFFF",
"@.	c #2727D3D3FFFF",
"#.	c #0303B0B0FFFF",
"$.	c #2323A3A3F2F2",
"%.	c #575786865757",
"&.	c #343470703434",
"*.	c #000051510000",
"=.	c #00004D4D0000",
"-.	c #9D9DA5A5AAAA",
";.	c #00003E3E6868",
":.	c #000058589696",
">.	c #00007272C3C3",
",.	c #00007F7FD9D9",
"<.	c #00008D8DEFEF",
"1.	c #0909A1A1FCFC",
"2.	c #3030CFCFFFFF",
"3.	c #1919BCBCFFFF",
"4.	c #575768685757",
"5.	c #000043430000",
"6.	c #000075750000",
"7.	c #69699D9D6969",
"8.	c #000045450000",
"9.	c #000041410000",
"0.	c #000063630000",
"q.	c #11116B6B1111",
"w.	c #11116C6C1111",
"e.	c #111159591F1F",
"r.	c #000043435C5C",
"t.	c #00004D4D8383",
"y.	c #00006363A9A9",
"u.	c #00007171C1C1",
"i.	c #00007E7ED7D7",
"p.	c #00008989E9E9",
"a.	c #00009191F6F6",
"s.	c #00009494FAFA",
"d.	c #00009696F0F0",
"f.	c #34348D8D6F6F",
"g.	c #00004F4F0000",
"h.	c #000047470000",
"j.	c #00006A6A0000",
"k.	c #000022220000",
"l.	c #23234D4D2323",
"z.	c #57576F6F5757",
"x.	c #575770706565",
"c.	c #00003C3C5757",
"v.	c #000041416F6F",
"b.	c #000052528A8A",
"n.	c #00006262A8A8",
"m.	c #00006F6FBDBD",
"M.	c #00008383DEDE",
"N.	c #00008585E3E3",
"B.	c #00008080D3D3",
"V.	c #00004D4D4141",
"C.	c #111141411111",
"Z.	c #343460603434",
"A.	c #00002D2D0000",
"S.	c #000052520000",
"D.	c #000042420000",
"F.	c #575780805757",
"G.	c #11112E2E1111",
"H.	c #57577E7E5757",
"J.	c #111139395151",
"K.	c #000037375E5E",
"L.	c #00005C5C9D9D",
"P.	c #00006767AFAF",
"I.	c #00006E6EBBBB",
"U.	c #00007070BEBE",
"Y.	c #00006565ABAB",
"T.	c #9D9DAEAEB9B9",
"R.	c #575767675757",
"E.	c #000028280000",
"W.	c #000030300000",
"Q.	c #7A7A8C8C7A7A",
"!.	c #464662627272",
"~.	c #000040405353",
"^.	c #00003C3C5C5C",
"/.	c #00003C3C6666",
"(.	c #000046467777",
").	c #000057579595",
"_.	c #00005A5A9A9A",
"`.	c #00005C5C8E8E",
"'.	c #464676769898",
"].	c #34345F5F3F3F",
"[.	c #00003D3D3232",
"{.	c #000034345050",
"}.	c #000032325656",
"|.	c #000033335858",
" X	c #000039396161",
".X	c #00003D3D5F5F",
"XX	c #000049495050",
"oX	c #AFAFB8B8AFAF",
"OX	c #232356562323",
"+X	c #00003A3A0000",
"@X	c #8C8C99998C8C",
"#X	c #000030304747",
"$X	c #00003D3D4747",
"%X	c #000027274343",
"&X	c #69697B7B8686",
"*X	c #464661614646",
"=X	c #000057570000",
"-X	c #9D9DAAAA9D9D",
";X	c #00005B5B0000",
":X	c #69698B8B6969",
">X	c #343464643434",
",X	c #00003C3C0000",
"<X	c #9D9DA3A3A6A6",
"1X	c #11113E3E2020",
"2X	c #232353533232",
"3X	c #232351512323",
"4X	c #46465D5D4646",
"5X	c #000040400000",
"6X	c #000048480000",
"7X	c #7A7A8B8B7A7A",
"8X	c #575773735757",
"9X	c #00003F3F0000",
"0X	c #000055550000",
"qX	c #7A7A9E9E7A7A",
"wX	c #00004C4C0000",
"eX	c #34347A7A3434",
"rX	c #9D9DA4A49D9D",
"tX	c #00002A2A0000",
"yX	c #000024240000",
"uX	c #343466663434",
"iX	c #000025250000",
"pX	c #464660604646",
"aX	c #00001E1E0000",
"sX	c #8C8C92928C8C",
"dX	c #232370702323",
"fX	c #696975756969",
"gX	c #000044440000",
"hX	c #00004E4E0000",
"jX	c #57577A7A5757",
"kX	c #9D9DA3A39D9D",
"lX	c #000029290000",
"zX	c #000036360000",
"xX	c #111133331111",
"cX	c #46465E5E4646",
"                                .                               ",
"                              X o                               ",
"                              O + @                             ",
"                            # $ % %                             ",
"                            & * = - ;                           ",
"          : o > ;         , < 1 2 3 4             5 6           ",
"          7 8 9 0 q X w   e r t y r u       i p a % s           ",
"            d f g g h         j k         l $ + % z X           ",
"            x c v b n         j k         m M c a N             ",
"            B V C Z A S       D k         F G H f f             ",
"              l J u K L S   P P I U     X G Y m l T             ",
"                    u K K R E W Q Q ! ~ G ^                     ",
"                      / ( ) _ ` ' ] [ { }                       ",
"            X         |  ...X.o.O.+.@.#.$.        B %.S         ",
"    . &.*.=.=.      -.;.:.>.,.<.1.2.3.W o.U       4.5.6.7.S     ",
"w ^ 8.5.& 9.0.q.w.q.e.r.t.y.u.i.p.a.o.s.d.f.f.f.f.g.h.a j.A 7.; ",
"  u t k.V v l.z.z.z.x.c.v.b.n.m...M.N.M.B.V.C.l.Z.l.A.S.f D.F.  ",
"      m G.1 H.      -.J.K.v.b.L.P.I.U.u.Y.T.      R.E.W.z.J     ",
"          Q.          !.~.^./.(.t.)._.`.'.        B 4.J         ",
"                      ].[.{.}.|. XK..XXX>                       ",
"              oX    OX+X@X!.J.#X$X%X&X*X=X7.                    ",
"            -X;X:X>X,Xu     <X1X2X<X    *Xy 7.w 3XoX            ",
"            4X5Xg.6X7X        C.C.        8Xy 9X0XqX            ",
"            l.A.8.wXF         3Xi         7XH 5.G eX            ",
"          rXA.tXyX& uX        OXi         d iXW.D.* oX          ",
"          pXV aXx sXw     @ @ 5.dXdXX     J fXh E.5XX           ",
"          , B             ^ v +XgXhXjX          kX7XH.          ",
"                          J G.lXzXC.                            ",
"                            4.E.zX8X                            ",
"                            kXxX3X                              ",
"                              cXD                               ",
"                              w                                 "};
